<svg width="368" height="213" viewBox="0 0 368 213" fill="none" xmlns="http://www.w3.org/2000/svg">
<mask id="path-1-outside-1_1643_88" maskUnits="userSpaceOnUse" x="0" y="0" width="368" height="213" fill="black">
<rect fill="white" width="368" height="213"/>
<path d="M4 193.27C6.89806 196.269 10.9625 198.135 15.4629 198.135L25.1885 208.206C20.6856 208.206 16.6191 206.338 13.7207 203.336L4 193.27ZM358.598 14.0664C361.368 16.9337 363.071 20.8381 363.071 25.1396V192.269C363.071 200.933 356.157 207.983 347.545 208.201L347.134 208.206H25.1885L15.4639 198.135H337.408C346.21 198.135 353.346 191 353.346 182.197H353.347V15.0693L353.346 15.0684C353.346 10.769 351.643 6.86684 348.876 4L358.598 14.0664Z"/>
</mask>
<path d="M4 193.27C6.89806 196.269 10.9625 198.135 15.4629 198.135L25.1885 208.206C20.6856 208.206 16.6191 206.338 13.7207 203.336L4 193.27ZM358.598 14.0664C361.368 16.9337 363.071 20.8381 363.071 25.1396V192.269C363.071 200.933 356.157 207.983 347.545 208.201L347.134 208.206H25.1885L15.4639 198.135H337.408C346.21 198.135 353.346 191 353.346 182.197H353.347V15.0693L353.346 15.0684C353.346 10.769 351.643 6.86684 348.876 4L358.598 14.0664Z" fill="#E34949"/>
<path d="M4 193.27L6.87679 190.49C5.34199 188.902 2.80995 188.858 1.22109 190.392C-0.367758 191.927 -0.411855 194.459 1.1226 196.048L4 193.27ZM15.4629 198.135L18.3403 195.356C17.5865 194.576 16.548 194.135 15.463 194.135L15.4629 198.135ZM25.1885 208.206L25.1885 212.206H25.1885V208.206ZM13.7207 203.336L16.5986 200.558L16.5981 200.557L13.7207 203.336ZM358.598 14.0664L355.72 16.8451L355.721 16.8456L358.598 14.0664ZM363.071 192.269L367.071 192.269V192.269H363.071ZM347.545 208.201L347.592 212.201C347.61 212.201 347.628 212.2 347.646 212.2L347.545 208.201ZM347.134 208.206V212.206C347.15 212.206 347.165 212.206 347.181 212.206L347.134 208.206ZM15.4639 198.135V194.135C13.8588 194.135 12.4091 195.094 11.7819 196.572C11.1547 198.049 11.4714 199.759 12.5863 200.913L15.4639 198.135ZM353.346 182.197V178.197C351.137 178.197 349.346 179.988 349.346 182.197H353.346ZM353.347 182.197V186.197C355.556 186.197 357.347 184.406 357.347 182.197H353.347ZM353.347 15.0693H357.347C357.347 14.0085 356.925 12.9911 356.175 12.2409L353.347 15.0693ZM353.346 15.0684L349.346 15.0684C349.346 16.1292 349.767 17.1466 350.517 17.8968L353.346 15.0684ZM348.876 4L351.753 1.22127C350.219 -0.367676 347.687 -0.411927 346.098 1.12243C344.508 2.65678 344.464 5.18881 345.998 6.77809L348.876 4ZM4 193.27L1.12321 196.049C4.74376 199.796 9.83348 202.135 15.4628 202.135L15.4629 198.135L15.463 194.135C12.0914 194.135 9.05236 192.742 6.87679 190.49L4 193.27ZM15.4629 198.135L12.5855 200.913L22.3111 210.985L25.1885 208.206L28.0659 205.427L18.3403 195.356L15.4629 198.135ZM25.1885 208.206L25.1885 204.206C21.8153 204.206 18.7746 202.812 16.5986 200.558L13.7207 203.336L10.8428 206.114C14.4637 209.865 19.556 212.206 25.1885 212.206L25.1885 208.206ZM13.7207 203.336L16.5981 200.557L6.8774 190.491L4 193.27L1.1226 196.048L10.8433 206.115L13.7207 203.336ZM358.598 14.0664L355.721 16.8456C357.799 18.9967 359.071 21.9156 359.071 25.1396H363.071H367.071C367.071 19.7606 364.936 14.8706 361.474 11.2872L358.598 14.0664ZM363.071 25.1396H359.071V192.269H363.071H367.071V25.1396H363.071ZM363.071 192.269L359.071 192.268C359.071 198.758 353.892 204.039 347.444 204.202L347.545 208.201L347.646 212.2C358.422 211.927 367.071 203.108 367.071 192.269L363.071 192.269ZM347.545 208.201L347.497 204.201L347.086 204.206L347.134 208.206L347.181 212.206L347.592 212.201L347.545 208.201ZM347.134 208.206V204.206H25.1885V208.206V212.206H347.134V208.206ZM25.1885 208.206L28.066 205.428L18.3414 195.356L15.4639 198.135L12.5863 200.913L22.311 210.985L25.1885 208.206ZM15.4639 198.135V202.135H337.408V198.135V194.135H15.4639V198.135ZM337.408 198.135V202.135C348.42 202.135 357.346 193.209 357.346 182.197H353.346H349.346C349.346 188.79 344.001 194.135 337.408 194.135V198.135ZM353.346 182.197V186.197H353.347V182.197V178.197H353.346V182.197ZM353.347 182.197H357.347V15.0693H353.347H349.347V182.197H353.347ZM353.347 15.0693L356.175 12.2409L356.174 12.2399L353.346 15.0684L350.517 17.8968L350.518 17.8978L353.347 15.0693ZM353.346 15.0684L357.346 15.0683C357.346 9.69172 355.212 4.80451 351.754 1.22191L348.876 4L345.998 6.77809C348.075 8.92916 349.346 11.8463 349.346 15.0684L353.346 15.0684ZM348.876 4L345.999 6.77873L355.72 16.8451L358.598 14.0664L361.475 11.2877L351.753 1.22127L348.876 4Z" fill="white" mask="url(#path-1-outside-1_1643_88)"/>
</svg>
