<svg width="371" height="371" viewBox="0 0 371 371" fill="none" xmlns="http://www.w3.org/2000/svg">
<mask id="path-1-outside-1_1643_71" maskUnits="userSpaceOnUse" x="0" y="0" width="371" height="371" fill="black">
<rect fill="white" width="371" height="371"/>
<path d="M366.479 31.3809V347.7C366.479 358.056 358.084 366.451 347.729 366.451H31.4082C26.3476 366.451 21.7551 364.446 18.3818 361.188L4 347.299C7.37276 350.555 11.9634 352.558 17.0215 352.558H333.342C343.697 352.557 352.092 344.163 352.092 333.808V17.4873L366.479 31.3809ZM360.749 17.8887C364.281 21.2985 366.478 26.0825 366.479 31.3799L352.092 17.4873C352.092 12.1924 349.897 7.4096 346.368 4L360.749 17.8887Z"/>
</mask>
<path d="M366.479 31.3809V347.7C366.479 358.056 358.084 366.451 347.729 366.451H31.4082C26.3476 366.451 21.7551 364.446 18.3818 361.188L4 347.299C7.37276 350.555 11.9634 352.558 17.0215 352.558H333.342C343.697 352.557 352.092 344.163 352.092 333.808V17.4873L366.479 31.3809ZM360.749 17.8887C364.281 21.2985 366.478 26.0825 366.479 31.3799L352.092 17.4873C352.092 12.1924 349.897 7.4096 346.368 4L360.749 17.8887Z" fill="#6BCE73"/>
<path d="M366.479 31.3809H370.479C370.479 30.2958 370.038 29.2573 369.257 28.5035L366.479 31.3809ZM347.729 366.451V370.451H347.729L347.729 366.451ZM18.3818 361.188L21.161 358.311L21.1605 358.31L18.3818 361.188ZM4 347.299L6.77809 344.421C5.18879 342.887 2.65674 342.931 1.12239 344.52C-0.411954 346.11 -0.367658 348.642 1.22134 350.176L4 347.299ZM333.342 352.558V356.558H333.342L333.342 352.558ZM352.092 333.808L356.092 333.808V333.808H352.092ZM360.749 17.8887L357.97 20.7659L357.971 20.7666L360.749 17.8887ZM366.479 31.3799L363.7 34.2573C364.855 35.3723 366.564 35.6891 368.042 35.0619C369.519 34.4347 370.479 32.9849 370.479 31.3798L366.479 31.3799ZM346.368 4L349.147 1.12276C347.558 -0.411817 345.026 -0.367832 343.491 1.22101C341.956 2.80985 342 5.34196 343.589 6.87679L346.368 4ZM366.479 31.3809H362.479V347.7H366.479H370.479V31.3809H366.479ZM366.479 347.7H362.479C362.479 355.847 355.875 362.451 347.728 362.451L347.729 366.451L347.729 370.451C360.293 370.451 370.479 360.265 370.479 347.7H366.479ZM347.729 366.451V362.451H31.4082V366.451V370.451H347.729V366.451ZM31.4082 366.451V362.451C27.4257 362.451 23.8185 360.878 21.161 358.311L18.3818 361.188L15.6027 364.064C19.6916 368.014 25.2695 370.451 31.4082 370.451V366.451ZM18.3818 361.188L21.1605 358.31L6.77866 344.422L4 347.299L1.22134 350.176L15.6032 364.065L18.3818 361.188ZM4 347.299L1.22191 350.177C5.31029 354.123 10.8859 356.558 17.0215 356.558V352.558V348.558C13.0409 348.558 9.43523 346.986 6.77809 344.421L4 347.299ZM17.0215 352.558V356.558H333.342V352.558V348.558H17.0215V352.558ZM333.342 352.558L333.342 356.558C345.906 356.557 356.092 346.372 356.092 333.808L352.092 333.808L348.092 333.808C348.092 341.954 341.488 348.557 333.342 348.558L333.342 352.558ZM352.092 333.808H356.092V17.4873H352.092H348.092V333.808H352.092ZM352.092 17.4873L349.313 20.3646L363.7 34.2582L366.479 31.3809L369.257 28.5035L354.87 14.61L352.092 17.4873ZM360.749 17.8887L357.971 20.7666C360.755 23.4539 362.478 27.2122 362.479 31.38L366.479 31.3799L370.479 31.3798C370.478 24.9529 367.808 19.1431 363.527 15.0108L360.749 17.8887ZM366.479 31.3799L369.257 28.5025L354.87 14.6099L352.092 17.4873L349.313 20.3647L363.7 34.2573L366.479 31.3799ZM352.092 17.4873H356.092C356.092 11.0639 353.425 5.25556 349.147 1.12321L346.368 4L343.589 6.87679C346.37 9.56364 348.092 13.321 348.092 17.4873H352.092ZM346.368 4L343.589 6.87724L357.97 20.7659L360.749 17.8887L363.528 15.0114L349.147 1.12276L346.368 4Z" fill="white" mask="url(#path-1-outside-1_1643_71)"/>
</svg>
