<svg viewBox="0 0 471 91" fill="none" xmlns="http://www.w3.org/2000/svg">
<mask id="path-1-outside-1_1643_152" maskUnits="userSpaceOnUse" x="0" y="9.15527e-05" width="371" height="371" fill="black">
<rect fill="white" y="9.15527e-05" width="371" height="371"/>
<path d="M366.294 347.684C366.294 358.039 357.899 366.435 347.543 366.435L347.542 366.434H31.2236C25.4526 366.434 20.2901 363.826 16.8506 359.726L4 344.411C7.43956 348.509 12.6 351.113 18.3682 351.113H334.688C345.043 351.113 353.437 342.719 353.438 332.363L366.294 347.684ZM366.294 31.3634V347.684L353.438 332.362V16.0431L366.294 31.3634ZM361.911 19.3155C364.646 22.574 366.294 26.7762 366.294 31.3634L353.438 16.0421C353.438 11.4577 351.793 7.25766 349.061 4.00009L361.911 19.3155Z"/>
</mask>
<path d="M366.294 347.684C366.294 358.039 357.899 366.435 347.543 366.435L347.542 366.434H31.2236C25.4526 366.434 20.2901 363.826 16.8506 359.726L4 344.411C7.43956 348.509 12.6 351.113 18.3682 351.113H334.688C345.043 351.113 353.437 342.719 353.438 332.363L366.294 347.684ZM366.294 31.3634V347.684L353.438 332.362V16.0431L366.294 31.3634ZM361.911 19.3155C364.646 22.574 366.294 26.7762 366.294 31.3634L353.438 16.0421C353.438 11.4577 351.793 7.25766 349.061 4.00009L361.911 19.3155Z" fill="#6BCCCE"/>
<path d="M347.543 366.435L344.715 369.263C345.465 370.013 346.482 370.435 347.543 370.435V366.435ZM347.542 366.434L350.37 363.605C349.62 362.855 348.603 362.434 347.542 362.434V366.434ZM16.8506 359.726L19.9153 357.155L19.9147 357.155L16.8506 359.726ZM4 344.411L7.06362 341.839C5.64334 340.148 3.12051 339.927 1.4285 341.347C-0.263511 342.767 -0.484072 345.29 0.935845 346.982L4 344.411ZM353.438 332.363L356.502 329.792C355.421 328.504 353.65 328.029 352.069 328.605C350.489 329.18 349.438 330.682 349.438 332.363L353.438 332.363ZM366.294 31.3634H370.294V31.3634L366.294 31.3634ZM353.438 332.362H349.438C349.438 333.303 349.77 334.213 350.374 334.933L353.438 332.362ZM353.438 16.0431L356.503 13.4719C355.422 12.1837 353.651 11.7092 352.07 12.2843C350.49 12.8594 349.438 14.3615 349.438 16.0431H353.438ZM361.911 19.3155L358.847 21.8866L358.847 21.8873L361.911 19.3155ZM353.438 16.0421L349.438 16.0422C349.439 16.9825 349.77 17.8928 350.374 18.6132L353.438 16.0421ZM349.061 4.00009L352.125 1.42901C350.705 -0.263212 348.182 -0.484102 346.49 0.935622C344.797 2.35535 344.576 4.87814 345.996 6.57062L349.061 4.00009ZM366.294 347.684H362.294C362.294 355.83 355.689 362.435 347.543 362.435V366.435V370.435C360.108 370.435 370.294 360.248 370.294 347.684H366.294ZM347.543 366.435L350.371 363.606L350.37 363.605L347.542 366.434L344.714 369.262L344.715 369.263L347.543 366.435ZM347.542 366.434V362.434H31.2236V366.434V370.434H347.542V366.434ZM31.2236 366.434V362.434C26.6848 362.434 22.6273 360.389 19.9153 357.155L16.8506 359.726L13.7859 362.296C17.953 367.264 24.2203 370.434 31.2236 370.434V366.434ZM16.8506 359.726L19.9147 357.155L7.06415 341.84L4 344.411L0.935845 346.982L13.7864 362.297L16.8506 359.726ZM4 344.411L0.936384 346.983C5.10344 351.947 11.3682 355.113 18.3682 355.113V351.113V347.113C13.8317 347.113 9.77567 345.07 7.06362 341.839L4 344.411ZM18.3682 351.113V355.113H334.688V351.113V347.113H18.3682V351.113ZM334.688 351.113V355.113C347.252 355.113 357.437 344.928 357.438 332.363L353.438 332.363L349.438 332.363C349.437 340.51 342.834 347.113 334.688 347.113V351.113ZM353.438 332.363L350.373 334.935L363.23 350.255L366.294 347.684L369.358 345.112L356.502 329.792L353.438 332.363ZM366.294 31.3634H362.294V347.684H366.294H370.294V31.3634H366.294ZM366.294 347.684L369.358 345.113L356.503 329.791L353.438 332.362L350.374 334.933L363.23 350.255L366.294 347.684ZM353.438 332.362H357.438V16.0431H353.438H349.438V332.362H353.438ZM353.438 16.0431L350.374 18.6142L363.23 33.9345L366.294 31.3634L369.358 28.7922L356.503 13.4719L353.438 16.0431ZM361.911 19.3155L358.847 21.8873C361.001 24.4524 362.294 27.7516 362.294 31.3634L366.294 31.3634L370.294 31.3634C370.294 25.8007 368.292 20.6956 364.975 16.7438L361.911 19.3155ZM366.294 31.3634L369.358 28.7923L356.503 13.471L353.438 16.0421L350.374 18.6132L363.23 33.9345L366.294 31.3634ZM353.438 16.0421L357.438 16.042C357.438 10.4829 355.439 5.38042 352.125 1.42957L349.061 4.00009L345.996 6.57062C348.147 9.13491 349.438 12.4326 349.438 16.0422L353.438 16.0421ZM349.061 4.00009L345.996 6.57117L358.847 21.8866L361.911 19.3155L364.975 16.7444L352.125 1.42901L349.061 4.00009Z" fill="white" mask="url(#path-1-outside-1_1643_152)"/>
</svg>
