<svg width="371" height="371" viewBox="0 0 371 371" fill="none" xmlns="http://www.w3.org/2000/svg">
<mask id="path-1-outside-1_1643_106" maskUnits="userSpaceOnUse" x="0" y="0.00012207" width="371" height="371" fill="black">
<rect fill="white" y="0.00012207" width="371" height="371"/>
<path d="M4 344.411C7.43956 348.509 12.6 351.113 18.3682 351.113H334.688L347.543 366.434H31.2227C25.452 366.433 20.29 363.826 16.8506 359.726L4 344.411ZM366.293 31.3634L366.294 347.684C366.294 358.039 357.898 366.434 347.543 366.434L334.688 351.112C345.043 351.112 353.438 342.718 353.438 332.362V16.0431L366.293 31.3634ZM361.911 19.3156C364.646 22.574 366.294 26.7762 366.294 31.3634L353.438 16.0421C353.438 11.4578 351.793 7.25769 349.061 4.00012L361.911 19.3156Z"/>
</mask>
<path d="M4 344.411C7.43956 348.509 12.6 351.113 18.3682 351.113H334.688L347.543 366.434H31.2227C25.452 366.433 20.29 363.826 16.8506 359.726L4 344.411ZM366.293 31.3634L366.294 347.684C366.294 358.039 357.898 366.434 347.543 366.434L334.688 351.112C345.043 351.112 353.438 342.718 353.438 332.362V16.0431L366.293 31.3634ZM361.911 19.3156C364.646 22.574 366.294 26.7762 366.294 31.3634L353.438 16.0421C353.438 11.4578 351.793 7.25769 349.061 4.00012L361.911 19.3156Z" fill="#6BCCCE"/>
<path d="M4 344.411L7.06362 341.839C5.64334 340.148 3.12051 339.927 1.4285 341.347C-0.263511 342.767 -0.484072 345.29 0.935845 346.982L4 344.411ZM334.688 351.113L337.752 348.542C336.992 347.637 335.87 347.113 334.688 347.113V351.113ZM31.2227 366.434L31.2225 370.434H31.2227V366.434ZM16.8506 359.726L19.9153 357.155L19.9147 357.155L16.8506 359.726ZM366.293 31.3634L370.293 31.3634C370.293 30.423 369.962 29.5126 369.357 28.7922L366.293 31.3634ZM366.294 347.684L370.294 347.684V347.684H366.294ZM334.688 351.112V347.112C333.133 347.112 331.719 348.013 331.062 349.422C330.405 350.831 330.624 352.493 331.623 353.684L334.688 351.112ZM353.438 16.0431L356.502 13.4719C355.421 12.1838 353.65 11.7092 352.069 12.2843C350.489 12.8595 349.438 14.3615 349.438 16.0431H353.438ZM361.911 19.3156L358.847 21.8866L358.847 21.8873L361.911 19.3156ZM366.294 31.3634L363.23 33.9345C364.311 35.2227 366.082 35.6973 367.662 35.1222C369.242 34.5471 370.294 33.045 370.294 31.3634L366.294 31.3634ZM353.438 16.0421L349.438 16.0422C349.439 16.9826 349.77 17.8928 350.374 18.6132L353.438 16.0421ZM349.061 4.00012L352.125 1.42904C350.705 -0.263181 348.182 -0.484071 346.49 0.935652C344.797 2.35538 344.576 4.87817 345.996 6.57065L349.061 4.00012ZM4 344.411L0.936384 346.983C5.10344 351.947 11.3682 355.113 18.3682 355.113V351.113V347.113C13.8317 347.113 9.77568 345.07 7.06362 341.839L4 344.411ZM18.3682 351.113V355.113H334.688V351.113V347.113H18.3682V351.113ZM334.688 351.113L331.623 353.685L344.479 369.005L347.543 366.434L350.607 363.863L337.752 348.542L334.688 351.113ZM347.543 366.434V362.434H31.2227V366.434V370.434H347.543V366.434ZM31.2227 366.434L31.2229 362.434C26.6844 362.434 22.6272 360.388 19.9153 357.155L16.8506 359.726L13.7859 362.296C17.9527 367.264 24.2196 370.433 31.2225 370.434L31.2227 366.434ZM16.8506 359.726L19.9147 357.155L7.06415 341.84L4 344.411L0.935845 346.982L13.7864 362.297L16.8506 359.726ZM366.293 31.3634L362.293 31.3634L362.294 347.684H366.294H370.294L370.293 31.3634L366.293 31.3634ZM366.294 347.684L362.294 347.684C362.294 355.83 355.689 362.434 347.543 362.434V366.434V370.434C360.107 370.434 370.294 360.248 370.294 347.684L366.294 347.684ZM347.543 366.434L350.607 363.863L337.752 348.541L334.688 351.112L331.623 353.684L344.479 369.005L347.543 366.434ZM334.688 351.112V355.112C347.252 355.112 357.438 344.927 357.438 332.362H353.438H349.438C349.438 340.509 342.834 347.112 334.688 347.112V351.112ZM353.438 332.362H357.438V16.0431H353.438H349.438V332.362H353.438ZM353.438 16.0431L350.373 18.6143L363.229 33.9346L366.293 31.3634L369.357 28.7922L356.502 13.4719L353.438 16.0431ZM361.911 19.3156L358.847 21.8873C361.001 24.4524 362.294 27.7517 362.294 31.3634L366.294 31.3634L370.294 31.3634C370.294 25.8007 368.292 20.6957 364.975 16.7438L361.911 19.3156ZM366.294 31.3634L369.358 28.7923L356.503 13.471L353.438 16.0421L350.374 18.6132L363.23 33.9345L366.294 31.3634ZM353.438 16.0421L357.438 16.042C357.438 10.4829 355.439 5.38045 352.125 1.4296L349.061 4.00012L345.996 6.57065C348.147 9.13494 349.438 12.4326 349.438 16.0422L353.438 16.0421ZM349.061 4.00012L345.996 6.5712L358.847 21.8866L361.911 19.3156L364.975 16.7445L352.125 1.42904L349.061 4.00012Z" fill="white" mask="url(#path-1-outside-1_1643_106)"/>
</svg>
