<svg width="371" height="371" viewBox="0 0 371 371" fill="none" xmlns="http://www.w3.org/2000/svg">
<mask id="path-1-outside-1_1643_123" maskUnits="userSpaceOnUse" x="0" y="0" width="371" height="371" fill="black">
<rect fill="white" width="371" height="371"/>
<path d="M366.192 346.499C366.192 357.372 357.378 366.187 346.505 366.188L346.504 366.187H32.0596C26.7459 366.187 21.9237 364.082 18.3818 360.66L4 346.772C7.54139 350.191 12.3619 352.294 17.6729 352.294H332.118C342.991 352.294 351.805 343.479 351.806 332.606L366.192 346.499ZM360.177 17.8877C363.77 21.3562 366.047 26.1792 366.186 31.5342L366.192 32.0537V346.499L351.806 332.605V18.1611L351.799 17.6416C351.66 12.289 349.385 7.46829 345.795 4L360.177 17.8877Z"/>
</mask>
<path d="M366.192 346.499C366.192 357.372 357.378 366.187 346.505 366.188L346.504 366.187H32.0596C26.7459 366.187 21.9237 364.082 18.3818 360.66L4 346.772C7.54139 350.191 12.3619 352.294 17.6729 352.294H332.118C342.991 352.294 351.805 343.479 351.806 332.606L366.192 346.499ZM360.177 17.8877C363.77 21.3562 366.047 26.1792 366.186 31.5342L366.192 32.0537V346.499L351.806 332.605V18.1611L351.799 17.6416C351.66 12.289 349.385 7.46829 345.795 4L360.177 17.8877Z" fill="#7B6BCE"/>
<path d="M346.505 366.188L343.676 369.016C344.427 369.766 345.444 370.188 346.505 370.188L346.505 366.188ZM346.504 366.187L349.332 363.358C348.582 362.608 347.565 362.187 346.504 362.187V366.187ZM18.3818 360.66L21.161 357.783L21.1604 357.783L18.3818 360.66ZM4 346.772L6.77809 343.895C5.18877 342.36 2.65669 342.405 1.12235 343.994C-0.411994 345.583 -0.36763 348.115 1.22144 349.65L4 346.772ZM332.118 352.294V356.294H332.118L332.118 352.294ZM351.806 332.606L354.584 329.729C353.43 328.614 351.72 328.297 350.243 328.924C348.765 329.552 347.806 331.001 347.806 332.606L351.806 332.606ZM360.177 17.8877L357.398 20.7651L357.399 20.7655L360.177 17.8877ZM366.186 31.5342L370.185 31.4816C370.185 31.4645 370.185 31.4475 370.184 31.4305L366.186 31.5342ZM366.192 32.0537H370.192C370.192 32.0362 370.192 32.0186 370.192 32.0011L366.192 32.0537ZM351.806 332.605H347.806C347.806 333.691 348.246 334.729 349.027 335.483L351.806 332.605ZM351.806 18.1611H355.806C355.806 18.1436 355.806 18.126 355.805 18.1085L351.806 18.1611ZM351.799 17.6416L355.798 17.589C355.798 17.572 355.798 17.555 355.797 17.5381L351.799 17.6416ZM345.795 4L348.573 1.12257C346.984 -0.411861 344.452 -0.367747 342.918 1.22111C341.383 2.80997 341.427 5.342 343.016 6.87679L345.795 4ZM366.192 346.499H362.192C362.192 355.163 355.169 362.187 346.505 362.188L346.505 366.188L346.505 370.188C359.587 370.187 370.192 359.581 370.192 346.499H366.192ZM346.505 366.188L349.333 363.359L349.332 363.358L346.504 366.187L343.675 369.015L343.676 369.016L346.505 366.188ZM346.504 366.187V362.187H32.0596V366.187V370.187H346.504V366.187ZM32.0596 366.187V362.187C27.8237 362.187 23.987 360.513 21.161 357.783L18.3818 360.66L15.6027 363.537C19.8604 367.65 25.6681 370.187 32.0596 370.187V366.187ZM18.3818 360.66L21.1604 357.783L6.77856 343.895L4 346.772L1.22144 349.65L15.6033 363.538L18.3818 360.66ZM4 346.772L1.22191 349.65C5.47907 353.76 11.2846 356.294 17.6729 356.294V352.294V348.294C13.4392 348.294 9.60372 346.622 6.77809 343.895L4 346.772ZM17.6729 352.294V356.294H332.118V352.294V348.294H17.6729V352.294ZM332.118 352.294L332.118 356.294C345.2 356.294 355.805 345.689 355.806 332.607L351.806 332.606L347.806 332.606C347.805 341.27 340.782 348.294 332.118 348.294L332.118 352.294ZM351.806 332.606L349.027 335.484L363.414 349.376L366.192 346.499L368.971 343.622L354.584 329.729L351.806 332.606ZM360.177 17.8877L357.399 20.7655C360.267 23.5345 362.076 27.3731 362.187 31.6378L366.186 31.5342L370.184 31.4305C370.017 24.9852 367.273 19.178 362.955 15.0099L360.177 17.8877ZM366.186 31.5342L362.186 31.5868L362.193 32.1063L366.192 32.0537L370.192 32.0011L370.185 31.4816L366.186 31.5342ZM366.192 32.0537H362.192V346.499H366.192H370.192V32.0537H366.192ZM366.192 346.499L368.971 343.622L354.584 329.728L351.806 332.605L349.027 335.483L363.414 349.376L366.192 346.499ZM351.806 332.605H355.806V18.1611H351.806H347.806V332.605H351.806ZM351.806 18.1611L355.805 18.1085L355.798 17.589L351.799 17.6416L347.799 17.6942L347.806 18.2138L351.806 18.1611ZM351.799 17.6416L355.797 17.5381C355.631 11.0953 352.888 5.29084 348.574 1.12321L345.795 4L343.016 6.87679C345.882 9.64574 347.69 13.4827 347.8 17.7451L351.799 17.6416ZM345.795 4L343.016 6.87743L357.398 20.7651L360.177 17.8877L362.955 15.0103L348.573 1.12257L345.795 4Z" fill="white" mask="url(#path-1-outside-1_1643_123)"/>
</svg>
