<svg width="1487" height="97" viewBox="0 0 1487 97" fill="none" xmlns="http://www.w3.org/2000/svg">
<path d="M-0.000179365 74.052V2.652H25.6018C47.9398 3.366 57.7318 16.626 57.7318 38.352C57.7318 60.078 47.9398 73.338 25.6018 74.052H-0.000179365ZM17.8498 20.502L18.7678 56.202C20.0938 56.202 21.2158 56.202 22.4398 56.202C35.5978 56.202 39.7798 49.368 39.8818 38.352C39.7798 27.336 35.5978 20.502 22.4398 20.502H17.8498ZM62.9051 9.078C62.9051 3.57 67.0871 8.34465e-07 73.7171 8.34465e-07C80.0411 8.34465e-07 84.2231 3.57 84.2231 9.078C84.2231 14.688 80.0411 18.258 73.7171 18.258C67.0871 18.258 62.9051 14.688 62.9051 9.078ZM64.8431 23.052H82.1831V74.052H64.8431V23.052ZM111.906 74.052H94.5658V36.516H88.7518V23.052H94.5658V18.666C94.5658 9.588 100.992 1.836 113.334 1.836C121.29 1.836 125.676 3.57 125.676 3.774V17.034C125.676 17.034 122.412 15.606 117.822 15.606C113.946 15.606 111.906 17.34 111.906 20.706V23.052H123.126V36.516H111.906V74.052ZM149.857 74.052H132.517V36.516H126.703V23.052H132.517V18.666C132.517 9.588 138.943 1.836 151.285 1.836C159.241 1.836 163.627 3.57 163.627 3.774V17.034C163.627 17.034 160.363 15.606 155.773 15.606C151.897 15.606 149.857 17.34 149.857 20.706V23.052H161.077V36.516H149.857V74.052ZM163.857 48.45C163.857 32.13 174.771 21.624 189.357 21.624C200.373 21.624 213.429 27.642 213.429 46.512V49.674H182.013C183.033 57.528 187.623 59.67 195.987 59.67C203.637 59.67 210.165 56.508 210.165 56.508V72.012C210.165 72.012 202.209 75.276 191.601 75.276C176.301 75.276 163.857 67.014 163.857 48.45ZM181.911 42.228H196.089C195.681 36.822 193.029 34.068 189.255 34.068C185.583 34.068 182.625 36.516 181.911 42.228ZM219.638 23.052H236.978V28.764C239.324 24.99 242.996 22.032 248.912 22.032C252.992 22.032 256.562 23.562 256.562 23.562V39.678C256.562 39.678 252.89 37.842 248.504 37.842C242.69 37.842 239.018 41.31 236.978 44.064V74.052H219.638V23.052ZM260.08 48.45C260.08 32.13 270.994 21.624 285.58 21.624C296.596 21.624 309.652 27.642 309.652 46.512V49.674H278.236C279.256 57.528 283.846 59.67 292.21 59.67C299.86 59.67 306.388 56.508 306.388 56.508V72.012C306.388 72.012 298.432 75.276 287.824 75.276C272.524 75.276 260.08 67.014 260.08 48.45ZM278.134 42.228H292.312C291.904 36.822 289.252 34.068 285.478 34.068C281.806 34.068 278.848 36.516 278.134 42.228ZM348.103 74.052V43.656C348.103 38.454 345.961 36.618 342.391 36.516C338.413 36.312 334.741 38.454 332.803 40.086V74.052H315.463V23.052H332.803V27.132C335.965 24.786 341.371 22.032 348.511 22.032C357.181 22.032 365.443 26.112 365.443 39.78V74.052H348.103ZM394.434 9.69V23.052H405.144V37.128H394.434V54.978C394.434 58.344 396.066 59.466 399.024 59.466C402.594 59.466 405.144 58.038 405.144 58.038V72.624C405.144 72.726 400.962 75.072 393.414 75.072C382.296 75.072 377.094 69.36 377.094 58.854V37.128H369.75V23.052H376.074L381.072 9.69H394.434ZM462.073 53.04C462.073 42.942 437.593 44.88 437.593 21.828C437.593 9.996 446.875 1.632 461.155 1.632C473.497 1.632 479.209 4.488 479.209 4.488L479.311 21.93C479.311 21.93 471.661 17.85 463.297 17.85C458.299 17.85 456.055 19.686 456.055 23.358C456.055 33.048 480.943 32.538 480.943 53.958C480.943 66.096 471.661 74.97 455.851 74.97C443.509 74.97 437.287 71.604 437.287 71.604L437.185 54.162C437.185 54.162 447.079 58.752 455.137 58.752C459.319 58.752 462.073 56.712 462.073 53.04ZM508.188 9.69V23.052H518.898V37.128H508.188V54.978C508.188 58.344 509.82 59.466 512.778 59.466C516.348 59.466 518.898 58.038 518.898 58.038V72.624C518.898 72.726 514.716 75.072 507.168 75.072C496.05 75.072 490.848 69.36 490.848 58.854V37.128H483.504V23.052H489.828L494.826 9.69H508.188ZM573.347 23.052L556.721 79.458C553.865 89.148 549.071 96.084 536.015 96.084C529.283 96.084 523.367 94.044 523.367 94.044L522.551 77.316C522.551 77.316 529.385 79.356 535.811 79.356C540.605 79.356 543.155 78.132 544.379 74.052H538.463L523.367 23.052H540.707L548.153 57.834L556.007 23.052H573.347ZM595.174 2.652V74.052H577.834V2.652H595.174ZM601.242 48.45C601.242 32.13 612.156 21.624 626.742 21.624C637.758 21.624 650.814 27.642 650.814 46.512V49.674H619.398C620.418 57.528 625.008 59.67 633.372 59.67C641.022 59.67 647.55 56.508 647.55 56.508V72.012C647.55 72.012 639.594 75.276 628.986 75.276C613.686 75.276 601.242 67.014 601.242 48.45ZM619.296 42.228H633.474C633.066 36.822 630.414 34.068 626.64 34.068C622.968 34.068 620.01 36.516 619.296 42.228ZM676.541 56.406C676.541 49.674 655.631 53.346 655.631 36.312C655.631 27.336 663.179 22.032 675.011 22.032C683.987 22.032 690.719 25.5 690.719 25.5L690.821 41.004C690.821 41.004 684.395 37.536 676.643 37.536C673.073 37.536 671.747 38.658 671.747 40.392C671.747 46.41 692.759 42.534 692.759 60.894C692.759 68.85 686.741 75.174 672.869 75.174C662.261 75.174 655.529 71.706 655.529 71.706V56.202C655.529 56.202 660.935 59.67 670.115 59.67C674.603 59.67 676.541 58.548 676.541 56.406ZM701.349 65.28C701.349 59.874 705.531 56.202 712.161 56.202C718.485 56.202 722.667 59.874 722.667 65.28C722.667 79.662 709.101 89.25 709.101 89.25L703.287 83.844C706.755 80.478 708.387 77.01 709.101 74.154C704.307 73.236 701.349 69.972 701.349 65.28ZM779.628 53.04C779.628 42.942 755.148 44.88 755.148 21.828C755.148 9.996 764.43 1.632 778.71 1.632C791.052 1.632 796.764 4.488 796.764 4.488L796.866 21.93C796.866 21.93 789.216 17.85 780.852 17.85C775.854 17.85 773.61 19.686 773.61 23.358C773.61 33.048 798.498 32.538 798.498 53.958C798.498 66.096 789.216 74.97 773.406 74.97C761.064 74.97 754.842 71.604 754.842 71.604L754.74 54.162C754.74 54.162 764.634 58.752 772.692 58.752C776.874 58.752 779.628 56.712 779.628 53.04ZM803.549 59.976C803.549 52.428 807.119 45.288 821.501 45.288C827.519 45.288 832.517 46.206 835.577 47.226V46.41C835.577 41.922 833.333 38.352 824.357 38.148C819.257 38.046 811.505 39.372 807.731 40.596V24.48C812.627 23.154 819.359 22.032 827.723 22.032C843.023 22.032 852.917 27.642 852.917 40.8V74.052H835.577V71.094C832.007 73.44 827.213 74.868 821.399 74.868C810.281 74.868 803.549 68.952 803.549 59.976ZM835.577 60.486V53.856C834.047 53.244 831.395 52.632 828.437 52.632C823.235 52.632 821.399 54.06 821.399 57.426C821.399 60.486 823.439 62.424 828.335 62.424C831.497 62.424 834.149 61.506 835.577 60.486ZM887.65 74.052V42.024C887.65 37.842 886.528 35.904 883.978 35.904C881.53 35.904 879.388 37.536 878.164 39.066V74.052H860.824V23.052H878.164V26.622C881.836 23.562 886.324 22.032 891.322 22.032C896.932 22.032 901.012 24.072 903.154 28.254C907.132 24.174 912.334 22.032 917.944 22.032C926.818 22.032 931.816 27.234 931.816 38.352V74.052H914.476V42.024C914.476 37.842 913.354 35.904 910.804 35.904C908.356 35.904 906.214 37.536 904.99 39.066V74.052H887.65ZM937.324 48.45C937.324 32.13 948.238 21.624 962.824 21.624C973.84 21.624 986.896 27.642 986.896 46.512V49.674H955.48C956.5 57.528 961.09 59.67 969.454 59.67C977.104 59.67 983.632 56.508 983.632 56.508V72.012C983.632 72.012 975.676 75.276 965.068 75.276C949.768 75.276 937.324 67.014 937.324 48.45ZM955.378 42.228H969.556C969.148 36.822 966.496 34.068 962.722 34.068C959.05 34.068 956.092 36.516 955.378 42.228Z" fill="white"/>
<path d="M1019 74.052V2.652H1065.92V19.992H1036.85V30.702H1063.88V41.922H1036.85V56.712H1065.92V74.052H1019ZM1090.7 74.052H1070.6L1086.92 48.654L1071.01 23.052H1091L1098.35 36.822L1105.69 23.052H1125.68L1109.77 48.654L1126.09 74.052H1106L1098.35 59.364L1090.7 74.052ZM1126.48 48.45C1126.48 29.988 1139.74 21.624 1154.43 21.624C1162.69 21.624 1170.24 24.888 1170.24 24.888V41.004C1170.24 41.004 1164.83 37.842 1157.18 37.842C1150.15 37.842 1144.33 40.596 1144.33 48.45C1144.33 56.304 1150.15 59.058 1157.18 59.058C1164.83 59.058 1170.24 55.896 1170.24 55.896V72.012C1170.24 72.012 1162.69 75.276 1154.43 75.276C1139.74 75.276 1126.48 66.912 1126.48 48.45ZM1174.1 48.45C1174.1 32.13 1185.01 21.624 1199.6 21.624C1210.61 21.624 1223.67 27.642 1223.67 46.512V49.674H1192.25C1193.27 57.528 1197.86 59.67 1206.23 59.67C1213.88 59.67 1220.4 56.508 1220.4 56.508V72.012C1220.4 72.012 1212.45 75.276 1201.84 75.276C1186.54 75.276 1174.1 67.014 1174.1 48.45ZM1192.15 42.228H1206.33C1205.92 36.822 1203.27 34.068 1199.49 34.068C1195.82 34.068 1192.86 36.516 1192.15 42.228ZM1246.82 2.652V74.052H1229.48V2.652H1246.82ZM1272.72 2.652V74.052H1255.38V2.652H1272.72ZM1278.78 48.45C1278.78 32.13 1289.7 21.624 1304.28 21.624C1315.3 21.624 1328.36 27.642 1328.36 46.512V49.674H1296.94C1297.96 57.528 1302.55 59.67 1310.91 59.67C1318.56 59.67 1325.09 56.508 1325.09 56.508V72.012C1325.09 72.012 1317.14 75.276 1306.53 75.276C1291.23 75.276 1278.78 67.014 1278.78 48.45ZM1296.84 42.228H1311.02C1310.61 36.822 1307.96 34.068 1304.18 34.068C1300.51 34.068 1297.55 36.516 1296.84 42.228ZM1366.81 74.052V43.656C1366.81 38.454 1364.67 36.618 1361.1 36.516C1357.12 36.312 1353.45 38.454 1351.51 40.086V74.052H1334.17V23.052H1351.51V27.132C1354.67 24.786 1360.08 22.032 1367.22 22.032C1375.89 22.032 1384.15 26.112 1384.15 39.78V74.052H1366.81ZM1389.65 48.45C1389.65 29.988 1402.91 21.624 1417.6 21.624C1425.86 21.624 1433.41 24.888 1433.41 24.888V41.004C1433.41 41.004 1428 37.842 1420.35 37.842C1413.31 37.842 1407.5 40.596 1407.5 48.45C1407.5 56.304 1413.31 59.058 1420.35 59.058C1428 59.058 1433.41 55.896 1433.41 55.896V72.012C1433.41 72.012 1425.86 75.276 1417.6 75.276C1402.91 75.276 1389.65 66.912 1389.65 48.45ZM1437.26 48.45C1437.26 32.13 1448.18 21.624 1462.76 21.624C1473.78 21.624 1486.84 27.642 1486.84 46.512V49.674H1455.42C1456.44 57.528 1461.03 59.67 1469.39 59.67C1477.04 59.67 1483.57 56.508 1483.57 56.508V72.012C1483.57 72.012 1475.62 75.276 1465.01 75.276C1449.71 75.276 1437.26 67.014 1437.26 48.45ZM1455.32 42.228H1469.5C1469.09 36.822 1466.44 34.068 1462.66 34.068C1458.99 34.068 1456.03 36.516 1455.32 42.228Z" fill="#ADDFFD"/>
</svg>
