<svg width="1325" height="287" viewBox="0 0 1325 287" fill="none" xmlns="http://www.w3.org/2000/svg">
<path d="M29.5909 111.47V1.57002H88.9369C110.76 1.57002 122.064 13.345 122.064 29.673V29.987C122.064 41.291 116.569 49.298 108.562 53.851C118.296 58.561 125.832 67.824 125.832 80.384V81.326C125.832 100.166 112.958 111.47 92.7049 111.47H29.5909ZM66.4859 45.53H76.0629C82.1859 45.53 85.1689 43.489 85.1689 39.093C85.1689 35.325 82.8139 32.97 76.5339 32.97H66.4859V45.53ZM66.4859 80.07H77.7899C85.6399 80.07 88.9369 78.029 88.9369 73.005C88.9369 68.138 85.4829 65.94 78.2609 65.94H66.4859V80.07ZM132.162 111.47V1.57002H210.662V37.68H169.057V45.373H207.522V65.783H169.057V75.36H210.662V111.47H132.162ZM242.949 111.47V70.493L212.962 1.57002H250.485L261.475 29.516L272.465 1.57002H309.988L279.844 70.807V111.47H242.949ZM303.728 57.148C303.728 23.864 325.865 2.57492e-05 358.992 2.57492e-05C392.119 2.57492e-05 414.256 23.864 414.256 57.148C414.256 90.589 392.119 113.04 358.992 113.04C325.865 113.04 303.728 90.589 303.728 57.148ZM342.193 56.834C342.193 68.452 348.944 76.302 358.992 76.302C369.04 76.302 375.791 68.452 375.791 56.834C375.791 45.373 369.04 36.738 358.992 36.738C348.944 36.738 342.193 45.373 342.193 56.834ZM477.826 111.47L458.986 68.295V111.47H422.091V1.57002L430.098 1.88403L429.941 1.57002H460.556L479.396 44.745V1.57002H516.291V111.47H477.826ZM525.735 111.47V1.57002H574.562C608.945 2.66903 624.017 23.079 624.017 56.52C624.017 89.961 608.945 110.371 574.562 111.47H525.735ZM562.63 38.465L564.043 74.575C577.859 74.575 587.122 72.063 587.122 56.52C587.122 45.373 582.726 38.465 566.241 38.465H562.63ZM704.09 75.517C704.09 65.783 669.55 70.179 669.55 32.97C669.55 13.502 685.878 2.57492e-05 709.271 2.57492e-05C729.838 2.57492e-05 739.258 4.39603 739.258 4.39603L739.415 40.035C739.415 40.035 726.698 33.755 713.824 33.755C708.957 33.755 707.387 35.011 707.387 37.523C707.387 46.943 742.555 44.274 742.555 78.814C742.555 97.497 727.954 112.883 700.322 112.883C679.912 112.883 669.707 107.702 669.707 107.702L669.55 72.063C669.55 72.063 687.134 79.128 699.066 79.128C702.049 79.128 704.09 78.186 704.09 75.517ZM747.283 56.52C747.283 21.509 767.536 2.57492e-05 801.762 2.57492e-05C822.329 2.57492e-05 832.22 7.53602 832.22 7.53602L832.377 44.745C832.377 44.745 822.8 36.738 809.298 36.738C794.383 36.738 784.178 42.233 784.178 56.52C784.178 70.807 794.383 76.302 809.298 76.302C822.8 76.302 832.377 68.295 832.377 68.295L832.22 105.504C832.22 105.504 822.329 113.04 801.762 113.04C767.536 113.04 747.283 91.531 747.283 56.52ZM898.406 111.47L880.351 76.93H878.624V111.47H841.729V1.57002H899.191C921.799 1.57002 937.97 14.758 937.97 39.25C937.97 55.735 930.748 67.039 919.13 72.691L940.482 111.47H898.406ZM878.624 50.24H888.201C897.15 50.24 901.075 46.786 901.075 41.605C901.075 35.796 897.15 32.97 888.201 32.97H878.624V50.24ZM945.22 111.47V1.57002H1023.72V37.68H982.115V45.373H1020.58V65.783H982.115V75.36H1023.72V111.47H945.22ZM1032.31 111.47V1.57002H1110.81V37.68H1069.2V45.373H1107.67V65.783H1069.2V75.36H1110.81V111.47H1032.31ZM1175.89 111.47L1157.05 68.295V111.47H1120.16V1.57002L1128.17 1.88403L1128.01 1.57002H1158.62L1177.46 44.745V1.57002H1214.36V111.47H1175.89ZM1256.81 75.517C1256.81 65.783 1222.27 70.179 1222.27 32.97C1222.27 13.502 1238.6 2.57492e-05 1261.99 2.57492e-05C1282.56 2.57492e-05 1291.98 4.39603 1291.98 4.39603L1292.13 40.035C1292.13 40.035 1279.42 33.755 1266.54 33.755C1261.68 33.755 1260.11 35.011 1260.11 37.523C1260.11 46.943 1295.27 44.274 1295.27 78.814C1295.27 97.497 1280.67 112.883 1253.04 112.883C1232.63 112.883 1222.43 107.702 1222.43 107.702L1222.27 72.063C1222.27 72.063 1239.85 79.128 1251.79 79.128C1254.77 79.128 1256.81 78.186 1256.81 75.517Z" fill="white"/>
<path d="M3.92497e-05 284.47V174.57H36.895V284.47H3.92497e-05ZM102.038 284.47L83.1978 241.295V284.47H46.3028V174.57L54.3098 174.884L54.1528 174.57H84.7678L103.608 217.745V174.57H140.503V284.47H102.038ZM170.902 284.47V211.465H146.881V174.57H231.661V211.465H207.797V284.47H170.902ZM233.2 230.148C233.2 196.864 255.337 173 288.464 173C321.591 173 343.728 196.864 343.728 230.148C343.728 263.589 321.591 286.04 288.464 286.04C255.337 286.04 233.2 263.589 233.2 230.148ZM271.665 229.834C271.665 241.452 278.416 249.302 288.464 249.302C298.512 249.302 305.263 241.452 305.263 229.834C305.263 218.373 298.512 209.738 288.464 209.738C278.416 209.738 271.665 218.373 271.665 229.834ZM419.267 284.47V243.493L389.28 174.57H426.803L437.793 202.516L448.783 174.57H486.306L456.162 243.807V284.47H419.267ZM480.046 230.148C480.046 196.864 502.183 173 535.31 173C568.437 173 590.574 196.864 590.574 230.148C590.574 263.589 568.437 286.04 535.31 286.04C502.183 286.04 480.046 263.589 480.046 230.148ZM518.511 229.834C518.511 241.452 525.262 249.302 535.31 249.302C545.358 249.302 552.109 241.452 552.109 229.834C552.109 218.373 545.358 209.738 535.31 209.738C525.262 209.738 518.511 218.373 518.511 229.834ZM643.976 251.5C650.256 251.5 654.181 247.575 654.181 235.8V174.57H691.076V242.708C691.076 265.944 678.987 286.04 643.976 286.04C608.965 286.04 596.876 265.944 596.876 242.708V174.57H633.771V235.8C633.771 247.575 637.696 251.5 643.976 251.5ZM757.198 284.47L739.143 249.93H737.416V284.47H700.521V174.57H757.983C780.591 174.57 796.762 187.758 796.762 212.25C796.762 228.735 789.54 240.039 777.922 245.691L799.274 284.47H757.198ZM737.416 223.24H746.993C755.942 223.24 759.867 219.786 759.867 214.605C759.867 208.796 755.942 205.97 746.993 205.97H737.416V223.24ZM902.253 284.47V243.493H881.843V284.47H844.948V174.57H881.843V208.168H902.253V174.57H939.148V284.47H902.253ZM948.593 284.47V174.57H1027.09V210.68H985.488V218.373H1023.95V238.783H985.488V248.36H1027.09V284.47H948.593ZM1030.16 284.47L1058.89 174.57H1106.46L1135.19 284.47H1096.26L1092.96 267.985H1071.92L1069.1 284.47H1030.16ZM1075.69 245.22H1088.56L1081.66 210.209L1075.69 245.22ZM1196.46 284.47L1178.41 249.93H1176.68V284.47H1139.78V174.57H1197.25C1219.85 174.57 1236.02 187.758 1236.02 212.25C1236.02 228.735 1228.8 240.039 1217.18 245.691L1238.54 284.47H1196.46ZM1176.68 223.24H1186.26C1195.2 223.24 1199.13 219.786 1199.13 214.605C1199.13 208.796 1195.2 205.97 1186.26 205.97H1176.68V223.24ZM1264.23 284.47V211.465H1240.21V174.57H1324.99V211.465H1301.12V284.47H1264.23Z" fill="#ADDFFD"/>
</svg>
