<svg width="41" height="41" viewBox="0 0 41 41" fill="none" xmlns="http://www.w3.org/2000/svg">
<path d="M39.1715 16.1091L33.1681 15.3368C30.4661 14.999 27.8944 13.9699 25.6991 12.3479C23.5037 10.7259 21.7581 8.56525 20.6294 6.07278L18.1009 0.54136C17.9873 0.351684 17.8202 0.200153 17.6209 0.106022C17.4216 0.01189 17.199 -0.0205915 16.9815 0.0127034C16.764 0.0459981 16.5614 0.143567 16.3993 0.293011C16.2373 0.442455 16.1232 0.637028 16.0716 0.852006L15.3135 6.88653C14.9821 9.60251 13.9628 12.1864 12.3532 14.3908C10.7436 16.5953 8.59752 18.3467 6.12033 19.4773L0.622854 22.0101C0.411704 22.107 0.237846 22.2704 0.127661 22.4758C0.0174755 22.6811 -0.0230224 22.9171 0.012311 23.1479C0.0476444 23.3787 0.156881 23.5918 0.323445 23.7547C0.49001 23.9177 0.704811 24.0217 0.935257 24.0509L6.93868 24.8232C9.64065 25.161 12.2124 26.1902 14.4077 27.8122C16.6031 29.4342 18.3486 31.5948 19.4774 34.0873L22.0059 39.6187C22.1026 39.8312 22.2655 40.0062 22.4699 40.1174C22.6743 40.2285 22.9091 40.2696 23.1386 40.2345C23.3681 40.1993 23.5799 40.0899 23.7417 39.9227C23.9035 39.7555 24.0066 39.5397 24.0352 39.3081L24.7933 33.2735C25.1247 30.5576 26.144 27.9737 27.7536 25.7692C29.3632 23.5647 31.5093 21.8134 33.9865 20.6828L39.4839 18.1499C39.6951 18.0531 39.8689 17.8896 39.9791 17.6843C40.0893 17.479 40.1298 17.243 40.0945 17.0122C40.0591 16.7814 39.9499 16.5683 39.7833 16.4053C39.6168 16.2424 39.402 16.1384 39.1715 16.1091Z" fill="#714111" fill-opacity="0.67"/>
</svg>
