<svg width="42" height="33" viewBox="0 0 42 33" fill="none" xmlns="http://www.w3.org/2000/svg">
<g filter="url(#filter0_d_1812_173)">
<ellipse cx="20.5218" cy="12.3402" rx="16.8005" ry="11.9509" transform="rotate(-15.0266 20.5218 12.3402)" fill="#5691B9"/>
<path d="M18.331 4.17823C22.1913 3.14199 25.8444 3.36037 28.5843 4.37929C31.333 5.40148 32.8823 7.08619 33.3671 8.89222C33.8518 10.6982 33.3545 12.9325 31.4874 15.1937C29.6261 17.4477 26.5731 19.4654 22.713 20.5017C18.8525 21.538 15.1989 21.3208 12.459 20.3018C9.71042 19.2797 8.16104 17.5948 7.67614 15.7889C7.19133 13.9829 7.68881 11.7486 9.55587 9.48742C11.4172 7.23326 14.4705 5.21456 18.331 4.17823Z" stroke="#5691B9" stroke-width="7"/>
</g>
<defs>
<filter id="filter0_d_1812_173" x="0" y="0" width="41.0439" height="32.6802" filterUnits="userSpaceOnUse" color-interpolation-filters="sRGB">
<feFlood flood-opacity="0" result="BackgroundImageFix"/>
<feColorMatrix in="SourceAlpha" type="matrix" values="0 0 0 0 0 0 0 0 0 0 0 0 0 0 0 0 0 0 127 0" result="hardAlpha"/>
<feOffset dy="4"/>
<feGaussianBlur stdDeviation="2"/>
<feComposite in2="hardAlpha" operator="out"/>
<feColorMatrix type="matrix" values="0 0 0 0 0 0 0 0 0 0 0 0 0 0 0 0 0 0 0.25 0"/>
<feBlend mode="normal" in2="BackgroundImageFix" result="effect1_dropShadow_1812_173"/>
<feBlend mode="normal" in="SourceGraphic" in2="effect1_dropShadow_1812_173" result="shape"/>
</filter>
</defs>
</svg>
